<?xml version="1.0" encoding="utf-8"?>
<?xml-stylesheet type="text/xsl" href="rss1.xsl"?>
<rss version="2.0" xmlns:atom="http://www.w3.org/2005/Atom" xmlns:content="http://purl.org/rss/1.0/modules/content/" xmlns:dc="http://purl.org/dc/elements/1.1/" xmlns:media="http://search.yahoo.com/mrss/">
<channel>
 <title>sharemania</title>
 <link>http://www.sharemania.us/</link>
 <atom:link href="http://www.gettyimg.com/" rel="self" type="application/rss+xml" />

 
                <item>
                <title><![CDATA[【Music Videos】PACK - TWICE - ENEMY (MV) | 4K | AI Master | HI-RES &amp; Dolby Atmos | w/lyrics]]></title>
                <link><![CDATA[https://sharemania.us/threads/twice-enemy-mv-4k-ai-master-hi-res-dolby-atmos-w-lyrics.282230/]]></link>
                <description><![CDATA[<article>
				<blockquote class="messageText SelectQuoteContainer ugc baseHtml">
					
					<div style="text-align: center"><a href="https://www.youtube.com/watch?v=xWldBK4d2Ps" target="_blank" class="externalLink" rel="nofollow"><img src="https://i.imgur.com/99ajztW.jpeg" class="bbCodeImage LbImage" alt="[​IMG]" data-url="https://i.imgur.com/99ajztW.jpeg"></a><br>
<img src="https://bendodson.s3-eu-west-1.amazonaws.com/apple-music/hi-res-lossless.png" class="bbCodeImage LbImage" alt="[​IMG]" data-url="https://bendodson.s3-eu-west-1.amazonaws.com/apple-music/hi-res-lossless.png" style=""><img src="https://bendodson.s3-eu-west-1.amazonaws.com/apple-music/dolby-atmos.png" class="bbCodeImage LbImage" alt="[​IMG]" data-url="https://bendodson.s3-eu-west-1.amazonaws.com/apple-music/dolby-atmos.png" style=""><img src="https://i.imgur.com/5vuWLmR.png" class="bbCodeImage LbImage" alt="[​IMG]" data-url="https://i.imgur.com/5vuWLmR.png" style=""><img src="https://i.imgur.com/KhPaTAO.png" class="bbCodeImage LbImage" alt="[​IMG]" data-url="https://i.imgur.com/KhPaTAO.png" style=""><br>
<img src="https://i.imgur.com/5AQb3Gy.jpeg" class="bbCodeImage LbImage" alt="[​IMG]" data-url="https://i.imgur.com/5AQb3Gy.jpeg" style=""><br>
<span style="font-size: 15px"><b>Artist:</b> TWICE<br>
<b>Album: </b>ENEMY<br>
<b>MV:</b> ENEMY<br>
<b>Year:</b> 2025<br>
<b>Source: <span style="color: rgb(255, 0, 0)"><span style="text-decoration: underline">Apple Music &amp; Bugs!</span></span></b><br>
<b><b>Genre:</b> </b>J-Pop<br>
<b>Format:</b> MKV | AVC / HEVC | PCM, EAC3-JOC<br>
<b>Overall Bitrate: </b>240 &amp; 60 Mb/s<br>
<i>Inc. Subs: Japanese &amp; Romanized</i></span><br>
<img src="https://i.imgur.com/5AQb3Gy.jpeg" class="bbCodeImage LbImage" alt="[​IMG]" data-url="https://i.imgur.com/5AQb3Gy.jpeg" style=""><br>
<b>MASTER<br>
H.264 | AVC | 2880p | PCM 24bit/48kHz | Dolby Atmos | SOFT SUBS .ASS</b><br>
<img src="https://i.imgur.com/AT66vwj.jpeg" class="bbCodeImage LbImage" alt="[​IMG]" data-url="https://i.imgur.com/AT66vwj.jpeg" style=""><br>
<br>
<b><span style="text-decoration: underline">NOTES:</span></b><br>
<i>Based mostly in Apple Music ver &amp; Bugs! Ver. | Enhanced with Topaz Video AI &amp; Davinci Resolve</i><br>



<div class="bbCodeBlock bbCodeQuote">
	<aside>
		
		<blockquote class="quoteContainer"><div class="quote">Syncing the audio was a pain in the ass thanks to the official release &amp; and the MV audio being on a different famerate, was planning on releasing this earlyer but the audio syincing and the lack of time didn't help. ENJOY.</div><div class="quoteExpand">Click to expand...</div></blockquote>
	</aside>
</div><b><span style="text-decoration: underline">MEDIA INFO:</span></b>


<div class="ToggleTriggerAnchor bbCodeSpoilerContainer">
	<button type="button" class="button bbCodeSpoilerButton ToggleTrigger Tooltip JsOnly" data-target="&gt; .SpoilerTarget"><span>Spoiler</span></button>
	<div class="SpoilerTarget bbCodeSpoilerText">Format                         : Matroska<br>
Format version                 : Version 4<br>
File size                      : 5.19 GiB<br>
Duration                       : 3 min 4 s<br>
Overall bit rate               : 242 Mb/s<br>
Frame rate                     : 24.000 FPS<br>
Movie name                     : ENEMY<br>
Track name/Position            : 1<br>
Track name/Total               : 9<br>
Encoded by                     : ivan26XDead<br>
Recorded date                  : 2025-08-26<br>
Encoded date                   : 2025-08-22 10:04:31 UTC<br>
Writing application            : mkvmerge v92.0 ('Everglow') 64-bit<br>
Writing library                : libebml v1.4.5 + libmatroska v1.7.1<br>
ISRC                           : JPWP02570781<br>
Copyright                      : ℗ 2025 WARNER MUSIC JAPAN INC.<br>
Cover                          : Yes<br>
Comment                        : Official Music Video<br>
Attachments                    : cover.jpg<br>
AIENHANCEDBY                   : ivan26XDead<br>
ALBUMARTISTSORT                : TWICE<br>
ARTIST                         : TWICE<br>
ARTISTSORT                     : TWICE<br>
COMPOSER                       : Benji Bae, Carmen Reece &amp; IMLAY<br>
COMPOSERSORT                   : Benji Bae, Carmen Reece &amp; IMLAY<br>
GENRE                          : J-pop<br>
PERFORMER                      : TWICE<br>
PUBLISHER                      : WM Japan<br>
SORT_WITH                      : ENEMY<br>
SUBTITLESBY                    : ivan26XDead<br>
Video<br>
ID                             : 1<br>
Format                         : AVC<br>
Format/Info                    : Advanced Video Codec<br>
Format profile                 : Main@L6<br>
Format settings                : CABAC / 4 Ref Frames<br>
Format settings, CABAC         : Yes<br>
Format settings, Reference fra : 4 frames<br>
Codec ID                       : V_MPEG4/ISO/AVC<br>
Duration                       : 3 min 4 s<br>
Bit rate                       : 238 Mb/s<br>
Width                          : 3 840 pixels<br>
Height                         : 2 880 pixels<br>
Display aspect ratio           : 4:3<br>
Frame rate mode                : Constant<br>
Frame rate                     : 24.000 FPS<br>
Color space                    : YUV<br>
Chroma subsampling             : 4:2:0<br>
Bit depth                      : 8 bits<br>
Scan type                      : Progressive<br>
Bits/(Pixel*Frame)             : 0.898<br>
Stream size                    : 5.12 GiB (99%)<br>
Title                          : -ivan26XDead<br>
Language                       : Japanese<br>
Default                        : Yes<br>
Forced                         : No<br>
Color range                    : Limited<br>
Color primaries                : BT.709<br>
Transfer characteristics       : BT.709<br>
Matrix coefficients            : BT.709<br>
Audio #1<br>
ID                             : 2<br>
Format                         : PCM<br>
Format settings                : Little / Signed<br>
Codec ID                       : A_PCM/INT/LIT<br>
Duration                       : 3 min 4 s<br>
Bit rate mode                  : Constant<br>
Bit rate                       : 2 304 kb/s<br>
Channel(s)                     : 2 channels<br>
Sampling rate                  : 48.0 kHz<br>
Frame rate                     : 25.003 FPS (1920 SPF)<br>
Bit depth                      : 24 bits<br>
Stream size                    : 50.7 MiB (1%)<br>
Title                          : Master<br>
Language                       : Japanese<br>
Default                        : Yes<br>
Forced                         : No<br>
Audio #2<br>
ID                             : 3<br>
Format                         : E-AC-3 JOC<br>
Format/Info                    : Enhanced AC-3 with Joint Object Coding<br>
Commercial name                : Dolby Digital Plus with Dolby Atmos<br>
Codec ID                       : A_EAC3<br>
Duration                       : 3 min 4 s<br>
Bit rate mode                  : Constant<br>
Bit rate                       : 768 kb/s<br>
Channel(s)                     : 6 channels<br>
Channel layout                 : L R C LFE Ls Rs<br>
Sampling rate                  : 48.0 kHz<br>
Frame rate                     : 31.250 FPS (1536 SPF)<br>
Compression mode               : Lossy<br>
Stream size                    : 16.9 MiB (0%)<br>
Title                          : Dolby Atmos ◗◖<br>
Language                       : Japanese<br>
Service kind                   : Complete Main<br>
Default                        : Yes<br>
Forced                         : No<br>
Complexity index               : 16<br>
Number of dynamic objects      : 15<br>
Bed channel count              : 1 channel<br>
Bed channel configuration      : LFE<br>
Dialog Normalization           : -19 dB<br>
compr                          : -0.28 dB<br>
dmixmod                        : Lo/Ro<br>
ltrtcmixlev                    : -3.0 dB<br>
ltrtsurmixlev                  : -3.0 dB<br>
lorocmixlev                    : -3.0 dB<br>
lorosurmixlev                  : -3.0 dB<br>
dialnorm_Average               : -19 dB<br>
dialnorm_Minimum               : -19 dB<br>
dialnorm_Maximum               : -19 dB<br>
Text #1<br>
ID                             : 4<br>
Format                         : ASS<br>
Codec ID                       : S_TEXT/ASS<br>
Codec ID/Info                  : Advanced Sub Station Alpha<br>
Duration                       : 2 min 41 s<br>
Bit rate                       : 168 b/s<br>
Frame rate                     : 0.483 FPS<br>
Count of elements              : 78<br>
Compression mode               : Lossless<br>
Stream size                    : 3.31 KiB (0%)<br>
Language                       : Japanese<br>
Default                        : Yes<br>
Forced                         : No<br>
Text #2<br>
ID                             : 5<br>
Format                         : ASS<br>
Codec ID                       : S_TEXT/ASS<br>
Codec ID/Info                  : Advanced Sub Station Alpha<br>
Duration                       : 2 min 41 s<br>
Bit rate                       : 163 b/s<br>
Frame rate                     : 0.483 FPS<br>
Count of elements              : 78<br>
Compression mode               : Lossless<br>
Stream size                    : 3.22 KiB (0%)<br>
Title                          : Romanized<br>
Language                       : Japanese<br>
Default                        : Yes<br>
Forced                         : No</div>
</div><br>
<b><span style="text-decoration: underline">SCREENSHOTS: </span></b>


<div class="ToggleTriggerAnchor bbCodeSpoilerContainer">
	<button type="button" class="button bbCodeSpoilerButton ToggleTrigger Tooltip JsOnly" data-target="&gt; .SpoilerTarget"><span>Spoiler</span></button>
	<div class="SpoilerTarget bbCodeSpoilerText"><img src="https://i.imgur.com/qvznZ7H.jpeg" class="bbCodeImage LbImage" alt="[​IMG]" data-url="https://i.imgur.com/qvznZ7H.jpeg" style=""><br>
<img src="https://i.imgur.com/gQ87klZ.jpeg" class="bbCodeImage LbImage" alt="[​IMG]" data-url="https://i.imgur.com/gQ87klZ.jpeg" style=""><br>
<img src="https://i.imgur.com/sHe3QBI.jpeg" class="bbCodeImage LbImage" alt="[​IMG]" data-url="https://i.imgur.com/sHe3QBI.jpeg" style=""><br>
<img src="https://i.imgur.com/QLDCLgi.jpeg" class="bbCodeImage LbImage" alt="[​IMG]" data-url="https://i.imgur.com/QLDCLgi.jpeg" style=""><br>
<img src="https://i.imgur.com/5OcDb3R.jpeg" class="bbCodeImage LbImage" alt="[​IMG]" data-url="https://i.imgur.com/5OcDb3R.jpeg" style=""><br>
<img src="https://i.imgur.com/3ww590u.jpeg" class="bbCodeImage LbImage" alt="[​IMG]" data-url="https://i.imgur.com/3ww590u.jpeg" style=""><br>
<img src="https://i.imgur.com/beBZoyX.jpeg" class="bbCodeImage LbImage" alt="[​IMG]" data-url="https://i.imgur.com/beBZoyX.jpeg" style=""><br>
<img src="https://i.imgur.com/MSNsadx.jpeg" class="bbCodeImage LbImage" alt="[​IMG]" data-url="https://i.imgur.com/MSNsadx.jpeg" style=""><br>
<img src="https://i.imgur.com/ezd4LPE.jpeg" class="bbCodeImage LbImage" alt="[​IMG]" data-url="https://i.imgur.com/ezd4LPE.jpeg" style=""></div>
</div><img src="https://i.imgur.com/5AQb3Gy.jpeg" class="bbCodeImage LbImage" alt="[​IMG]" data-url="https://i.imgur.com/5AQb3Gy.jpeg" style=""><br>
<b>HEVC Ver.<br>
H.265 | HEVC | 2880p | PCM 24bit/48kHz | Dolby Atmos | SOFT SUBS .ASS</b><br>
<img src="https://i.imgur.com/vVESQmD.jpeg" class="bbCodeImage LbImage" alt="[​IMG]" data-url="https://i.imgur.com/vVESQmD.jpeg" style=""><br>
<span style="text-decoration: underline"><b><i>MEDIA INFO:</i></b></span>


<div class="ToggleTriggerAnchor bbCodeSpoilerContainer">
	<button type="button" class="button bbCodeSpoilerButton ToggleTrigger Tooltip JsOnly" data-target="&gt; .SpoilerTarget"><span>Spoiler</span></button>
	<div class="SpoilerTarget bbCodeSpoilerText">Format                         : Matroska<br>
Format version                 : Version 4<br>
File size                      : 1.34 GiB<br>
Duration                       : 3 min 4 s<br>
Overall bit rate               : 62.6 Mb/s<br>
Frame rate                     : 24.000 FPS<br>
Movie name                     : ENEMY<br>
Track name/Position            : 1<br>
Track name/Total               : 9<br>
Encoded by                     : ivan26XDead<br>
Recorded date                  : 2025-08-26<br>
Encoded date                   : 2025-08-22 10:15:21 UTC<br>
Writing application            : mkvmerge v92.0 ('Everglow') 64-bit<br>
Writing library                : libebml v1.4.5 + libmatroska v1.7.1<br>
ISRC                           : JPWP02570781<br>
Copyright                      : ℗ 2025 WARNER MUSIC JAPAN INC.<br>
Cover                          : Yes<br>
Comment                        : Official Music Video<br>
Attachments                    : cover.jpg<br>
AIENHANCEDBY                   : ivan26XDead<br>
ALBUMARTISTSORT                : TWICE<br>
ARTIST                         : TWICE<br>
ARTISTSORT                     : TWICE<br>
COMPOSER                       : Benji Bae, Carmen Reece &amp; IMLAY<br>
COMPOSERSORT                   : Benji Bae, Carmen Reece &amp; IMLAY<br>
GENRE                          : J-pop<br>
PERFORMER                      : TWICE<br>
PUBLISHER                      : WM Japan<br>
SORT_WITH                      : ENEMY<br>
SUBTITLESBY                    : ivan26XDead<br>
Video<br>
ID                             : 1<br>
Format                         : HEVC<br>
Format/Info                    : High Efficiency Video Coding<br>
Format profile                 : Main 10@L6@High<br>
Codec ID                       : V_MPEGH/ISO/HEVC<br>
Duration                       : 3 min 4 s<br>
Bit rate                       : 59.4 Mb/s<br>
Width                          : 3 840 pixels<br>
Height                         : 2 880 pixels<br>
Display aspect ratio           : 4:3<br>
Frame rate mode                : Constant<br>
Frame rate                     : 24.000 FPS<br>
Color space                    : YUV<br>
Chroma subsampling             : 4:2:0<br>
Bit depth                      : 10 bits<br>
Bits/(Pixel*Frame)             : 0.224<br>
Stream size                    : 1.28 GiB (95%)<br>
Title                          : -ivan26XDead<br>
Language                       : Japanese<br>
Default                        : Yes<br>
Forced                         : No<br>
Color range                    : Limited<br>
Color primaries                : BT.709<br>
Transfer characteristics       : BT.709<br>
Matrix coefficients            : BT.709<br>
Audio #1<br>
ID                             : 2<br>
Format                         : PCM<br>
Format settings                : Little / Signed<br>
Codec ID                       : A_PCM/INT/LIT<br>
Duration                       : 3 min 4 s<br>
Bit rate mode                  : Constant<br>
Bit rate                       : 2 304 kb/s<br>
Channel(s)                     : 2 channels<br>
Sampling rate                  : 48.0 kHz<br>
Frame rate                     : 25.003 FPS (1920 SPF)<br>
Bit depth                      : 24 bits<br>
Stream size                    : 50.7 MiB (4%)<br>
Title                          : Master<br>
Language                       : Japanese<br>
Default                        : Yes<br>
Forced                         : No<br>
Audio #2<br>
ID                             : 3<br>
Format                         : E-AC-3 JOC<br>
Format/Info                    : Enhanced AC-3 with Joint Object Coding<br>
Commercial name                : Dolby Digital Plus with Dolby Atmos<br>
Codec ID                       : A_EAC3<br>
Duration                       : 3 min 4 s<br>
Bit rate mode                  : Constant<br>
Bit rate                       : 768 kb/s<br>
Channel(s)                     : 6 channels<br>
Channel layout                 : L R C LFE Ls Rs<br>
Sampling rate                  : 48.0 kHz<br>
Frame rate                     : 31.250 FPS (1536 SPF)<br>
Compression mode               : Lossy<br>
Stream size                    : 16.9 MiB (1%)<br>
Title                          : Dolby Atmos ◗◖<br>
Language                       : Japanese<br>
Service kind                   : Complete Main<br>
Default                        : Yes<br>
Forced                         : No<br>
Complexity index               : 16<br>
Number of dynamic objects      : 15<br>
Bed channel count              : 1 channel<br>
Bed channel configuration      : LFE<br>
Dialog Normalization           : -19 dB<br>
compr                          : -0.28 dB<br>
dmixmod                        : Lo/Ro<br>
ltrtcmixlev                    : -3.0 dB<br>
ltrtsurmixlev                  : -3.0 dB<br>
lorocmixlev                    : -3.0 dB<br>
lorosurmixlev                  : -3.0 dB<br>
dialnorm_Average               : -19 dB<br>
dialnorm_Minimum               : -19 dB<br>
dialnorm_Maximum               : -19 dB<br>
Text #1<br>
ID                             : 4<br>
Format                         : ASS<br>
Codec ID                       : S_TEXT/ASS<br>
Codec ID/Info                  : Advanced Sub Station Alpha<br>
Duration                       : 2 min 41 s<br>
Bit rate                       : 168 b/s<br>
Frame rate                     : 0.483 FPS<br>
Count of elements              : 78<br>
Compression mode               : Lossless<br>
Stream size                    : 3.31 KiB (0%)<br>
Language                       : Japanese<br>
Default                        : Yes<br>
Forced                         : No<br>
Text #2<br>
ID                             : 5<br>
Format                         : ASS<br>
Codec ID                       : S_TEXT/ASS<br>
Codec ID/Info                  : Advanced Sub Station Alpha<br>
Duration                       : 2 min 41 s<br>
Bit rate                       : 163 b/s<br>
Frame rate                     : 0.483 FPS<br>
Count of elements              : 78<br>
Compression mode               : Lossless<br>
Stream size                    : 3.22 KiB (0%)<br>
Title                          : Romanized<br>
Language                       : Japanese<br>
Default                        : Yes<br>
Forced                         : No</div>
</div><img src="https://i.imgur.com/5AQb3Gy.jpeg" class="bbCodeImage LbImage" alt="[​IMG]" data-url="https://i.imgur.com/5AQb3Gy.jpeg" style=""><b><i><span style="text-decoration: underline"><span style="font-size: 18px">DOWNLOAD:</span></span></i></b><br>




<div class="bbCodeBlock bbCodeVfcHH HiddenContent">
	<div class="attribution type">Hidden Content:</div>
	<blockquote>You must reply before you can see the hidden data contained here.</blockquote>
</div><img src="https://i.imgur.com/5AQb3Gy.jpeg" class="bbCodeImage LbImage" alt="[​IMG]" data-url="https://i.imgur.com/5AQb3Gy.jpeg" style=""><br>
<b><i><span style="text-decoration: underline"><span style="font-size: 10px">MORE FROM TWICE:</span></span></i></b><br>
<span style="font-size: 10px"><a href="https://sharemania.us/threads/twice-likey-mv-ai-master-2160p-h-264-hevc-w-lyrics.261368/" class="internalLink">LIKEY (MV) | AI MASTER | 2160p | HI-RES | w/lyics</a><br>
<a href="https://sharemania.us/threads/twice-dive-mv-4k-ai-master-hi-res-dolby-atmos-w-lyrics.279759" class="internalLink">DIVE (MV) | AI MASTER | 2160p | HI-RES &amp; Dolby Atmos | w/lyrics</a><br>
<a href="https://sharemania.us/threads/twice-this-is-for-mv-4k-master-hevc-hi-res-dolby-atmos-w-lyrics.279036" class="internalLink">THIS IS FOR (MV) | MASTER | 2160p | HI-RES &amp; Dolby Atmos | w/lyrics</a> <br>
<a href="https://sharemania.us/threads/twice-enemy-mv-4k-ai-master-hi-res-dolby-atmos-w-lyrics.282230" class="internalLink">ENEMY (MV) | AI MASTER | 2880p | HI-RES &amp; Dolby Atmos | w/lyrics</a></span><br>
<a href="https://sharemania.us/threads/twice-discography-solos-e-ac3-joc-16bits-48khz-dd-w-da-768kbits.252753/" class="internalLink"><span style="font-size: 10px">TWICE - DISCOGRAPHY | DOLBY ATMOS</span></a><br>
<img src="https://i.imgur.com/S1MK0Vq.jpeg" class="bbCodeImage LbImage" alt="[​IMG]" data-url="https://i.imgur.com/S1MK0Vq.jpeg" style="">​</div>
					<div class="messageTextEndMarker">&nbsp;</div>
				</blockquote>
			</article>]]></description>
                <author><![CDATA[ivan26XDead]]></author>
                </item>

                </channel></rss>